<?xml version="1.0" standalone="no"?>
<!DOCTYPE svg PUBLIC "-//W3C//DTD SVG 20010904//EN"
 "http://www.w3.org/TR/2001/REC-SVG-20010904/DTD/svg10.dtd">
<svg version="1.0" xmlns="http://www.w3.org/2000/svg"
 width="647.000000pt" height="647.000000pt" viewBox="0 0 647.000000 647.000000"
 preserveAspectRatio="xMidYMid meet">
<metadata>
Created by potrace 1.14, written by Peter Selinger 2001-2017
</metadata>
<g transform="translate(0.000000,647.000000) scale(0.100000,-0.100000)"
fill="#000000" stroke="none">
<path d="M2054 6353 c2 -49 0 -97 -4 -108 -6 -18 -8 -18 -20 5 -7 14 -31 56
-53 94 l-40 70 -24 -30 c-13 -16 -32 -59 -43 -95 -11 -38 -30 -75 -45 -89 -30
-28 -31 -23 -8 41 14 38 15 51 5 61 -22 22 -44 -14 -51 -87 -6 -59 -19 -84
-42 -85 -3 0 -6 14 -7 31 -1 53 -31 60 -39 10 -9 -66 -18 -234 -18 -366 0
-147 2 -168 28 -252 18 -59 29 -121 32 -176 3 -89 8 -101 124 -367 28 -63 47
-118 43 -122 -4 -3 -36 -16 -72 -28 -224 -75 -430 -218 -588 -409 -65 -78
-172 -238 -317 -471 -59 -96 -125 -202 -146 -235 -31 -47 -39 -69 -39 -106 0
-51 -12 -89 -57 -189 -90 -195 -106 -313 -118 -825 -3 -169 -5 -183 -29 -232
-33 -67 -34 -144 -4 -234 23 -71 66 -138 87 -139 19 0 7 54 -18 82 -19 19 -20
32 -16 172 3 140 6 171 21 265 l6 35 74 -113 c55 -84 74 -107 74 -88 0 13 -7
44 -15 67 -16 46 -23 116 -12 127 4 3 10 -8 13 -26 7 -33 25 -48 42 -37 6 4 6
21 0 46 -10 40 -4 95 10 86 4 -2 21 -45 37 -95 29 -91 45 -114 45 -65 0 33 17
64 36 64 12 0 13 7 7 38 -18 82 -6 242 26 356 16 59 32 110 34 113 7 6 26 -83
32 -146 6 -62 18 -81 49 -81 21 0 22 3 21 137 0 95 3 140 12 148 20 20 30 84
32 193 1 42 6 58 26 78 14 14 30 22 35 19 6 -4 10 -71 10 -167 0 -139 2 -159
14 -148 27 21 37 78 45 233 7 143 14 174 49 239 1 3 -15 4 -36 1 l-40 -5 57
59 c52 55 151 221 151 253 0 22 -39 -20 -93 -100 -55 -83 -84 -117 -109 -131
-12 -6 -6 16 23 88 54 131 66 157 112 240 32 57 43 70 54 61 7 -6 13 -17 13
-24 0 -21 13 -17 29 9 47 77 144 207 151 202 16 -10 -30 -106 -85 -178 -69
-90 -74 -108 -43 -146 l25 -29 49 41 c61 52 91 84 110 120 17 32 11 35 -18 7
-12 -11 -23 -18 -26 -16 -6 7 77 170 111 219 42 58 80 89 150 122 32 15 68 42
82 59 45 57 55 66 75 66 50 0 28 -56 -31 -80 -36 -15 -37 -28 -3 -40 66 -26
102 -28 142 -10 63 28 79 50 75 99 -3 46 -3 46 55 3 18 -14 40 -38 48 -55 l16
-29 -44 7 -43 6 25 -20 c14 -11 29 -21 33 -21 16 0 204 -128 232 -158 29 -31
53 -80 54 -114 1 -14 -4 -15 -28 -8 -45 13 -124 55 -188 99 -105 73 -109 78
-67 83 l26 3 -22 28 c-22 28 -25 29 -99 23 -42 -3 -91 -5 -108 -6 -25 0 -33
-4 -33 -18 0 -35 43 -60 150 -87 91 -23 147 -45 114 -45 -13 0 -196 40 -203
44 -3 2 -23 7 -43 10 -33 5 -38 3 -38 -14 0 -16 -7 -20 -35 -20 -29 0 -43 -10
-96 -65 -66 -68 -128 -101 -173 -93 l-24 5 29 -52 c34 -61 37 -91 9 -100 -18
-6 -21 -16 -20 -70 0 -3 -12 -28 -26 -57 -14 -28 -27 -69 -27 -90 l-1 -38 -55
0 -55 0 47 -48 c26 -26 47 -50 47 -53 0 -2 -21 -4 -47 -4 -27 1 -51 0 -55 -2
-4 -2 3 -20 15 -40 18 -31 22 -54 24 -160 2 -142 11 -168 54 -159 l29 6 -25
-38 c-14 -20 -25 -39 -25 -43 0 -3 19 -15 43 -27 50 -25 87 -57 111 -94 29
-45 17 -55 -68 -55 l-75 -1 -26 38 c-26 38 -71 57 -89 39 -6 -5 -10 -29 -10
-53 -1 -52 28 -89 102 -132 l44 -26 -33 -34 c-25 -26 -32 -42 -32 -73 0 -42
23 -88 50 -98 8 -3 39 -2 69 4 l53 9 -29 -51 c-31 -55 -36 -80 -20 -105 8 -12
20 -4 66 43 68 71 102 89 157 85 55 -4 60 -30 15 -78 -68 -73 -68 -74 -18 -65
109 18 233 4 312 -36 l36 -19 21 43 c12 24 21 61 21 83 0 45 -17 111 -30 119
-5 3 -30 -10 -55 -30 -55 -42 -82 -45 -91 -11 -5 19 1 31 28 55 35 32 54 36
103 22 27 -7 159 14 293 48 2 1 -8 16 -22 34 -47 61 -41 68 107 120 141 51
180 56 208 31 17 -15 29 -12 176 46 345 137 454 197 589 322 75 71 84 101 81
278 -2 113 -7 158 -22 204 -22 67 -41 83 -106 90 -66 8 -109 28 -244 116 -137
88 -169 106 -239 130 -27 9 -53 23 -58 31 -4 8 -28 57 -53 110 -35 75 -50 98
-69 103 -13 3 -68 -4 -123 -15 -142 -31 -139 -31 -181 25 l-36 49 46 -7 c29
-4 49 -3 53 4 9 14 -80 127 -116 146 l-30 15 21 -40 c23 -45 26 -61 8 -43 -14
14 -54 16 -62 3 -3 -5 11 -21 31 -37 63 -48 16 -39 -62 13 -104 67 -109 91
-22 100 l46 5 -1 41 c0 28 5 43 17 50 9 5 28 33 41 63 15 34 33 58 51 68 38
19 79 76 63 86 -17 10 -79 -5 -109 -28 -14 -10 -46 -48 -70 -83 -35 -51 -42
-58 -37 -34 16 71 105 169 203 224 17 9 16 11 -7 36 -54 58 -89 51 -124 -28
-13 -29 -33 -61 -45 -71 -21 -19 -21 -19 -21 7 0 103 46 180 114 192 l36 7 -6
47 c-3 25 -7 57 -9 71 -2 14 -7 45 -10 70 -12 87 -36 164 -63 199 -22 30 -27
33 -30 17 -2 -10 1 -38 7 -63 12 -46 7 -88 -9 -78 -12 7 -27 64 -34 130 -10
84 -17 105 -36 115 -30 16 -33 13 -26 -42 8 -68 17 -101 59 -223 19 -55 38
-119 42 -142 6 -41 5 -44 -26 -60 -58 -32 -124 -100 -169 -177 -24 -41 -46
-73 -48 -71 -2 2 0 24 3 49 7 43 24 76 139 273 l48 82 -45 88 c-51 100 -82
188 -162 458 -31 105 -59 192 -62 195 -6 6 5 -99 12 -110 3 -5 8 -41 11 -82
l7 -73 -23 20 c-46 42 -53 95 -36 280 30 312 24 363 -54 429 -54 45 -60 38
-56 -61z m74 -198 c-3 -43 -13 -53 -27 -26 -12 22 -15 84 -4 94 12 13 34 -33
31 -68z m-112 -436 c4 -6 10 -26 14 -44 7 -31 6 -33 -14 -26 -15 6 -22 18 -24
45 -3 35 9 48 24 25z m199 -331 c52 -62 52 -69 8 -198 -3 -11 -17 -2 -48 33
-48 55 -49 79 -4 106 l28 17 -19 30 c-24 35 -25 44 -6 44 8 0 26 -15 41 -32z
m109 -225 c-37 -99 -64 -143 -87 -143 -15 0 0 84 22 128 19 38 64 82 82 82 4
0 -3 -30 -17 -67z m-434 -652 c0 -6 -8 -16 -19 -23 -15 -11 -156 -138 -236
-213 -68 -64 -70 -64 -36 0 43 82 96 146 155 186 75 52 136 74 136 50z m-317
-40 c-11 -29 -27 -44 -71 -62 -55 -24 -61 -24 -55 1 12 44 109 113 125 88 3
-6 4 -18 1 -27z m-226 -244 c-18 -41 -49 -72 -99 -98 -78 -40 -48 24 43 92 35
26 65 46 67 44 2 -1 -3 -18 -11 -38z m1444 -106 c32 -32 39 -57 13 -47 -9 3
-19 6 -23 6 -13 0 -51 41 -51 55 0 24 29 17 61 -14z m-462 -27 c46 -18 86 -36
89 -39 3 -3 -3 -11 -13 -19 -17 -12 -9 -18 86 -63 113 -55 157 -71 204 -74 56
-4 65 0 65 25 l0 24 113 -3 c61 -2 122 -6 133 -9 12 -2 37 -7 55 -10 147 -23
318 -143 374 -262 30 -62 52 -161 50 -223 -1 -52 -6 -56 -157 -151 -173 -108
-273 -137 -393 -115 -95 18 -201 74 -253 135 -66 77 -112 186 -114 272 -1 89
20 145 84 214 l39 43 -38 24 c-26 17 -58 27 -104 31 -79 7 -175 38 -329 105
-113 50 -132 63 -111 76 6 3 11 15 11 26 0 46 84 44 209 -7z m399 -19 c20 -43
13 -50 -18 -20 -35 33 -38 45 -12 45 11 0 24 -11 30 -25z m-472 -126 c109 -39
226 -83 258 -98 52 -23 57 -28 45 -41 -63 -67 -101 -143 -101 -207 l0 -43 -38
0 c-53 0 -69 22 -34 49 15 12 33 21 40 21 24 0 15 18 -18 34 -40 20 -74 20
-82 0 -3 -9 -6 -37 -6 -64 l0 -49 -32 10 c-68 19 -71 15 -38 -51 l30 -59 42
18 c24 10 57 27 74 36 20 12 39 16 57 11 l28 -7 -18 -29 c-11 -20 -25 -30 -40
-30 -20 0 -23 -4 -17 -27 4 -16 8 -29 9 -31 1 -1 20 11 43 28 l42 30 15 -30
c8 -16 15 -31 15 -34 0 -3 -19 -10 -42 -16 -57 -15 -98 -31 -98 -39 0 -4 5
-12 11 -18 15 -15 21 -71 8 -78 -5 -4 -49 -15 -97 -24 l-87 -18 44 -12 c74
-21 130 -10 262 50 l66 31 64 -49 c35 -26 85 -59 111 -72 l47 -24 -19 -27
c-20 -27 -26 -50 -14 -50 3 0 25 14 49 31 l43 31 33 -19 c25 -13 55 -18 114
-18 l81 0 151 77 c83 43 153 75 156 72 13 -13 -88 -88 -161 -119 -44 -18 -110
-52 -146 -75 -57 -36 -70 -40 -93 -32 -28 9 -91 -6 -118 -28 -19 -15 -124 -50
-128 -42 -4 7 -3 21 8 80 9 49 -3 56 -35 22 -32 -34 -70 -40 -70 -11 0 10 7
35 16 56 18 44 4 73 -17 34 -16 -31 -18 -32 -129 -75 -52 -20 -117 -45 -144
-56 l-48 -19 6 51 c6 46 4 51 -11 46 -190 -59 -243 -78 -243 -86 0 -6 15 -10
34 -10 39 0 52 -14 47 -49 -2 -17 1 -22 11 -19 108 40 157 45 108 11 -21 -15
-21 -17 -6 -23 9 -3 43 -3 76 0 73 7 81 4 74 -26 -3 -13 -2 -24 3 -24 5 0 44
23 88 50 44 28 86 51 95 51 8 1 24 3 35 4 11 1 28 -1 38 -4 14 -5 1 -19 -60
-65 -43 -32 -106 -72 -140 -88 -57 -27 -68 -29 -147 -24 l-84 5 -48 -36 c-48
-37 -112 -65 -127 -56 -5 3 2 17 15 32 38 41 54 73 57 112 3 43 -10 55 -38 37
-16 -10 -27 -10 -54 0 -29 10 -42 9 -93 -8 -84 -29 -94 -24 -50 29 50 60 64
90 61 129 -3 30 1 36 31 48 39 16 84 18 84 4 0 -22 37 -8 66 26 l32 36 -20 34
c-17 29 -23 33 -51 27 -53 -10 -110 -32 -150 -59 -39 -25 -43 -46 -7 -37 11 3
20 0 20 -6 0 -7 -22 -11 -59 -11 -107 0 -99 34 31 118 63 40 70 51 36 53 -49
3 -72 -1 -133 -26 -65 -26 -95 -31 -95 -17 0 4 14 29 30 55 17 26 30 49 30 51
0 2 -18 6 -41 9 -49 6 -57 13 -43 35 9 13 25 17 65 16 l54 -1 -3 -32 -3 -31
66 24 c36 13 69 27 72 30 8 8 -21 31 -64 52 -32 16 -42 16 -143 0 l-35 -5 28
15 c15 8 75 24 132 36 58 12 103 23 101 25 -6 7 -156 4 -216 -3 -29 -4 -50 -2
-50 4 0 14 42 55 81 77 l34 19 -43 6 -42 5 60 88 c63 93 71 121 46 169 -14 26
-13 27 22 35 33 8 37 13 53 67 19 63 43 96 69 96 10 0 107 -32 216 -71z
m-1180 -64 c21 -51 18 -101 -8 -127 l-21 -21 -25 28 c-20 24 -23 35 -18 67 7
42 32 88 48 88 5 0 16 -16 24 -35z m88 -19 c8 -33 -11 -43 -35 -19 -28 27 -19
69 11 51 10 -7 21 -21 24 -32z m-211 -85 c16 -2 5 -31 -19 -50 -39 -30 -58
-28 -49 6 9 37 22 52 43 48 9 -2 20 -4 25 -4z m207 -191 c0 -30 -32 -125 -48
-142 -20 -24 -42 -23 -43 2 -1 11 -2 26 -2 33 -2 20 14 90 24 109 12 23 69 22
69 -2z m-220 -50 c0 -9 -8 -39 -17 -66 l-17 -49 -12 29 c-7 19 -8 40 -3 58 4
15 5 28 3 28 -3 0 -3 4 0 8 9 15 46 8 46 -8z m90 -107 c25 -65 34 -169 19
-213 -11 -31 -53 -64 -72 -57 -17 6 -15 240 2 290 7 20 16 37 21 37 5 0 18
-26 30 -57z m-149 -48 c1 -8 2 -21 3 -27 3 -19 -33 -68 -50 -68 -19 0 -18 12
8 65 22 46 37 57 39 30z m1696 -48 c19 -12 0 -51 -28 -57 -41 -10 -68 0 -64
22 3 11 9 26 15 33 11 13 57 15 77 2z m-1785 -82 c9 -20 8 -33 -7 -65 -10 -22
-22 -40 -26 -40 -16 0 -22 52 -10 91 14 45 27 49 43 14z m77 -171 c26 -33 26
-57 0 -114 -28 -63 -59 -78 -79 -40 -8 15 -4 38 16 100 15 44 30 80 35 80 4 0
17 -12 28 -26z m1719 -119 c-6 -14 -25 -29 -42 -34 -35 -10 -66 -11 -66 -1 0
11 34 46 50 53 8 3 27 6 42 6 26 1 27 -1 16 -24z m-1860 -213 c2 -32 -1 -44
-13 -49 -22 -8 -35 13 -35 58 0 31 3 35 23 34 18 -1 22 -8 25 -43z m1642 -75
c0 -19 -21 -37 -42 -37 -21 0 -24 20 -6 38 16 16 48 15 48 -1z"/>
<path d="M3007 3805 c-108 -28 -168 -99 -163 -196 9 -187 209 -324 340 -232
128 90 124 329 -7 408 -41 24 -117 33 -170 20z m61 -79 c20 -20 -11 -46 -54
-46 -36 0 -43 14 -24 50 11 21 55 19 78 -4z"/>
<path d="M2005 3890 c-5 -9 43 -60 56 -60 5 0 9 -9 9 -20 0 -15 -7 -20 -24
-20 -14 0 -28 -4 -31 -10 -8 -13 -10 -12 113 -14 102 -2 133 7 67 20 -34 6
-63 29 -52 40 3 3 27 -1 54 -10 72 -23 105 -25 136 -8 28 17 37 41 15 43 -7 0
-20 2 -28 3 -8 2 -37 6 -65 10 -77 9 -135 17 -193 25 -29 5 -55 5 -57 1z"/>
<path d="M2385 3777 c-16 -13 -17 -17 -6 -31 25 -30 86 -15 79 20 -4 24 -46
30 -73 11z"/>
<path d="M1975 3706 l-30 -13 35 0 c19 -1 76 -4 126 -8 50 -4 104 -4 120 0 27
7 24 9 -31 21 -77 17 -181 17 -220 0z"/>
<path d="M2128 3449 c-10 -7 -9 -9 5 -10 60 -4 97 0 97 11 0 12 -83 11 -102
-1z"/>
<path d="M2160 3274 c-20 -8 -41 -23 -48 -34 -12 -19 -9 -20 72 -20 90 0 116
11 116 51 0 16 -7 19 -52 18 -29 0 -69 -7 -88 -15z"/>
<path d="M2411 3148 c-36 -9 -69 -17 -73 -17 -5 -1 -8 -5 -8 -9 0 -5 27 -8 60
-7 62 1 71 -6 44 -36 -28 -32 -10 -40 27 -13 20 14 56 28 80 31 41 5 87 40 89
66 0 14 -150 4 -219 -15z"/>
<path d="M2220 6293 c0 -5 11 -68 25 -142 14 -74 25 -135 25 -136 0 -2 20 -19
45 -40 38 -30 48 -35 61 -25 8 7 16 11 18 9 3 -2 43 -84 91 -181 48 -98 91
-175 96 -172 5 3 9 47 9 98 0 99 -9 122 -42 105 -15 -8 -21 -5 -36 22 -45 83
-93 149 -127 174 -60 46 -79 106 -55 169 5 14 7 33 3 42 -5 12 -10 9 -26 -17
-23 -36 -19 -40 -53 54 -9 26 -21 47 -25 47 -5 0 -9 -3 -9 -7z"/>
<path d="M5560 5966 c0 -2 7 -23 15 -46 8 -24 14 -45 12 -47 -2 -2 -17 3 -33
12 -16 8 -33 15 -39 15 -6 0 -11 -52 -11 -133 -3 -196 -45 -332 -146 -465 -22
-30 -38 -55 -36 -58 3 -2 30 -5 61 -7 37 -2 64 -10 77 -22 26 -24 25 -32 -2
-32 -13 1 -37 -2 -55 -6 -30 -6 -31 -8 -23 -38 5 -17 17 -40 26 -50 10 -11 15
-21 13 -23 -2 -3 -31 -8 -64 -11 -33 -4 -62 -9 -64 -11 -3 -3 5 -24 17 -49
l21 -44 -33 -11 c-27 -9 -38 -21 -54 -60 -12 -28 -25 -50 -29 -50 -4 0 -21 9
-38 20 -39 26 -41 25 -48 -9 -9 -42 -49 -84 -106 -111 -55 -25 -60 -34 -34
-62 15 -16 15 -21 3 -28 -8 -5 -17 -7 -21 -5 -14 9 -119 13 -119 5 0 -27 27
-64 107 -146 94 -97 119 -113 152 -92 32 19 27 65 -14 128 -38 59 -43 75 -21
67 8 -3 30 -9 49 -12 30 -6 36 -4 42 14 7 23 25 27 43 9 15 -15 29 -2 34 32 4
30 28 37 69 20 57 -24 62 -80 7 -80 -25 0 -29 -4 -26 -22 2 -12 20 -34 42 -49
21 -14 45 -38 53 -53 12 -23 12 -27 -2 -32 -23 -9 -64 15 -81 48 -27 52 -98
82 -86 36 3 -12 11 -34 19 -48 21 -40 17 -50 -16 -40 -45 13 -46 0 -1 -41 38
-35 39 -38 28 -70 -12 -38 -34 -66 -62 -81 -29 -16 -36 7 -18 63 13 40 13 52
3 62 -10 10 -16 7 -31 -10 -21 -27 -33 -28 -89 -8 -38 13 -42 13 -48 -3 -4 -9
-17 -33 -29 -52 -29 -46 -39 -80 -23 -80 6 0 39 17 72 37 l60 36 18 -22 c33
-40 51 -149 33 -196 -4 -9 -52 -39 -108 -67 -282 -141 -415 -295 -416 -483 0
-29 -9 -51 -31 -80 l-30 -40 29 -7 c30 -8 47 -35 56 -90 2 -14 9 -36 16 -47
10 -20 12 -20 46 14 19 19 42 35 52 36 9 0 37 2 62 5 89 11 136 91 128 216 -6
84 -29 137 -83 190 l-37 35 31 23 c80 56 140 44 192 -38 51 -81 72 -169 67
-280 -11 -206 -110 -342 -249 -342 -56 0 -90 11 -142 47 -20 14 -39 24 -42 22
-7 -8 15 -93 31 -116 16 -25 58 -50 97 -57 44 -8 49 -12 204 -192 87 -100 194
-254 177 -254 -26 0 -68 27 -114 75 -25 26 -53 51 -64 57 -17 9 -18 7 -11 -34
l7 -43 -34 33 c-31 29 -78 50 -78 35 0 -4 27 -39 60 -79 57 -68 90 -126 90
-156 0 -13 -56 42 -113 111 -37 44 -44 34 -17 -26 37 -85 113 -142 188 -143
28 0 32 3 32 26 0 14 -13 43 -30 64 -33 42 -36 50 -17 50 13 -1 184 -157 177
-163 -3 -2 -27 -12 -54 -22 -44 -16 -126 -77 -126 -94 0 -3 35 -6 78 -6 68 0
85 -4 152 -37 41 -20 93 -42 115 -50 l40 -14 17 -84 c10 -47 20 -101 23 -120
3 -19 8 -41 10 -48 3 -8 -7 -33 -21 -58 l-26 -44 -45 24 c-37 20 -49 23 -69
14 -39 -18 -23 -32 62 -53 92 -24 138 -49 153 -82 16 -36 13 -39 -13 -14 -25
24 -56 21 -37 -3 6 -7 18 -29 26 -50 l16 -38 -33 7 c-18 4 -77 27 -131 52 -54
24 -103 43 -109 41 -6 -2 61 -56 148 -120 238 -174 288 -237 309 -392 6 -44 6
-45 -34 -70 -22 -14 -46 -26 -52 -26 -6 0 -9 -6 -6 -12 2 -7 10 -12 16 -10 51
11 79 11 95 -1 27 -20 14 -47 -44 -86 -27 -19 -50 -37 -50 -41 0 -4 23 -10 50
-13 28 -3 56 -10 64 -14 24 -13 -5 -74 -57 -122 -66 -61 -62 -71 22 -71 43 0
72 -5 79 -12 15 -20 -2 -52 -41 -73 l-36 -19 -21 27 c-28 35 -72 46 -145 35
-113 -16 -180 -20 -204 -11 -22 9 -15 16 108 118 l131 108 0 47 0 47 -40 7
c-56 9 -104 55 -130 124 -24 63 -21 98 10 142 l20 28 -35 31 c-20 17 -39 31
-43 31 -4 0 -20 -16 -35 -35 -35 -44 -57 -44 -104 -2 -21 18 -45 32 -53 32
-35 -4 -40 -5 -40 -12 0 -5 18 -18 40 -31 39 -22 52 -42 28 -42 -7 0 -48 8
-90 19 -43 10 -80 16 -83 13 -16 -16 0 -54 39 -96 25 -26 43 -53 40 -60 -3 -7
-22 -12 -51 -11 -38 0 -47 4 -54 22 -11 29 -46 51 -89 55 -34 3 -35 2 -38 -34
-2 -20 3 -48 10 -61 13 -25 94 -117 103 -117 16 0 0 53 -25 85 -43 54 -39 71
8 41 20 -14 56 -32 80 -41 48 -19 50 -25 22 -50 -19 -17 -18 -18 35 -61 65
-53 70 -65 74 -177 l1 -28 66 36 c51 27 70 32 80 24 23 -19 16 -41 -31 -104
-25 -33 -45 -62 -45 -64 0 -3 16 -19 35 -37 19 -17 35 -39 35 -47 0 -9 -25
-37 -55 -63 -49 -43 -68 -68 -47 -62 22 6 52 -17 62 -48 6 -19 21 -39 33 -45
18 -10 25 -8 47 20 33 38 47 35 89 -24 43 -59 67 -66 102 -27 33 37 102 153
95 160 -5 4 -100 -9 -181 -24 -10 -2 -37 -6 -60 -9 -22 -4 -52 -8 -67 -11 -32
-5 -34 1 -13 53 20 50 40 61 116 64 35 1 87 10 114 20 50 18 52 18 103 -1 29
-11 69 -20 90 -20 20 0 43 -4 51 -9 23 -14 0 -53 -49 -87 -117 -81 -131 -107
-80 -154 16 -15 30 -31 30 -35 0 -7 -78 -42 -151 -69 -25 -9 -56 -27 -68 -40
l-23 -24 22 -12 c32 -17 90 -14 147 9 56 22 86 21 114 -5 18 -16 19 -15 20 22
1 45 5 71 17 104 7 19 11 10 20 -48 7 -39 17 -82 23 -96 14 -31 39 -42 40 -18
1 55 8 154 14 202 8 64 9 302 1 345 -2 17 -7 57 -11 90 -6 54 -39 222 -69 350
-6 25 -48 222 -81 380 -44 212 -79 289 -159 350 -26 20 -33 32 -30 48 3 12 7
72 9 132 4 130 -11 211 -62 340 -33 82 -35 94 -26 135 6 25 20 86 31 135 23
100 28 127 38 194 3 25 8 57 10 71 8 54 18 251 18 370 0 121 -12 404 -19 438
-1 9 -6 53 -10 97 -4 44 -9 96 -11 115 -7 61 -15 134 -19 160 -28 201 -37 290
-32 312 4 14 27 50 52 79 24 28 63 79 87 113 72 103 187 277 201 305 89 171
143 302 162 396 3 17 9 44 13 60 4 17 7 80 7 140 0 141 -25 224 -98 332 -29
42 -57 78 -63 80 -6 2 -11 -10 -12 -28 0 -18 -8 -39 -16 -47 -14 -14 -17 -12
-32 24 -24 58 -70 101 -156 145 -43 22 -78 37 -78 35z m10 -197 c9 -22 10 -36
3 -47 -20 -33 -31 -23 -30 28 0 57 9 63 27 19z m82 -545 c28 -14 45 -33 31
-35 -4 0 -18 -2 -31 -5 -33 -6 -92 31 -92 58 0 12 54 1 92 -18z m-12 -129 c16
-19 22 -57 7 -49 -18 11 -57 47 -57 54 0 12 39 8 50 -5z m-136 -160 c22 -17
13 -35 -17 -35 -26 0 -54 36 -34 43 20 9 31 7 51 -8z m-129 -160 c17 -2 33 -4
36 -4 10 -2 28 -48 22 -55 -14 -14 -53 -4 -91 24 -46 33 -56 57 -19 45 12 -4
36 -8 52 -10z m-114 -774 c-15 -27 -100 -77 -146 -86 -22 -5 -47 -10 -55 -11
-8 -2 -37 -6 -65 -9 -48 -6 -49 -6 -28 10 45 32 142 74 214 94 93 25 92 25 80
2z m74 -57 c-26 -40 -72 -63 -122 -60 -70 4 -74 22 -8 37 31 7 75 25 98 39 46
29 58 23 32 -16z m120 -4 c3 -19 8 -46 10 -60 2 -14 7 -41 10 -60 4 -19 8 -48
9 -65 2 -16 6 -48 9 -70 16 -106 19 -154 22 -330 3 -205 -10 -335 -45 -464
-23 -81 -77 -218 -90 -226 -4 -3 -22 20 -39 50 -25 44 -36 55 -56 55 -62 0
-125 52 -125 103 0 20 69 5 129 -29 60 -33 87 -31 106 7 l17 31 -31 -7 c-45
-10 -95 11 -135 55 -63 70 -97 77 -127 25 -12 -19 -28 -35 -35 -35 -30 0 -72
30 -82 58 -14 40 4 74 72 145 59 61 88 107 90 142 2 34 61 24 97 -16 16 -18
29 -36 29 -40 0 -4 27 0 60 8 94 24 71 63 -47 82 -71 11 -98 23 -113 51 -29
53 10 67 72 25 20 -14 45 -25 55 -25 21 0 63 27 63 40 0 4 -33 18 -72 30 -96
28 -136 47 -148 70 -9 16 -6 19 22 22 18 2 59 -1 90 -6 47 -8 64 -7 92 6 49
24 60 66 52 202 -3 61 -6 114 -6 119 0 17 -29 4 -80 -38 -30 -25 -61 -46 -67
-46 -7 -1 -19 -2 -25 -3 -7 -1 -21 2 -31 6 -16 8 -16 11 3 46 35 65 45 75 79
67 41 -9 83 15 122 70 18 25 34 44 35 42 2 -1 6 -18 9 -37z m-107 -216 c6 -2
12 -19 12 -39 0 -31 -5 -38 -31 -49 -33 -14 -27 -27 15 -31 11 -1 26 -3 32 -4
7 0 14 -9 16 -19 5 -16 -2 -19 -51 -21 -31 -1 -78 -4 -106 -7 l-50 -5 30 25
29 25 -22 21 -23 21 22 37 c36 60 57 68 127 46z m-571 -125 c-2 -24 -29 -42
-51 -33 -23 9 -20 19 10 43 30 23 43 20 41 -10z m493 -867 c0 -34 -24 -82 -41
-82 -23 0 -47 25 -55 55 -8 34 -1 40 50 41 35 1 46 -3 46 -14z m92 -79 c12
-14 13 -35 8 -100 -3 -46 -10 -86 -14 -90 -4 -5 -16 3 -27 17 -10 14 -23 30
-27 35 -27 33 -30 49 -16 88 24 68 47 83 76 50z"/>
<path d="M5150 3152 c0 -21 12 -41 42 -70 51 -51 33 -55 -33 -7 -27 19 -49 31
-49 26 0 -21 85 -80 143 -101 34 -12 84 -30 111 -41 l48 -19 -6 33 c-4 24 2
48 24 96 17 36 29 70 28 76 -2 7 -25 1 -66 -17 l-64 -29 26 -33 25 -34 -20
-18 c-21 -18 -21 -18 -46 11 -14 17 -36 42 -49 58 l-25 27 31 7 c42 8 33 25
-21 38 -108 28 -99 28 -99 -3z"/>
<path d="M5399 5683 c0 -10 -2 -28 -5 -40 -2 -12 4 -29 13 -38 15 -16 17 -16
26 0 6 12 5 31 -2 56 -12 40 -30 52 -32 22z"/>
<path d="M5290 5475 c-59 -126 -76 -145 -121 -138 -28 4 -31 2 -25 -14 13 -32
17 -107 8 -122 -14 -20 -50 -4 -68 31 -12 24 -18 28 -25 17 -19 -30 -8 -81 33
-157 24 -42 41 -78 40 -79 -2 -2 -7 -17 -12 -34 l-9 -32 24 23 c39 37 66 115
68 197 0 7 15 17 34 24 35 11 37 15 33 69 -8 95 -9 93 43 108 l47 13 0 100 c0
63 -4 99 -11 99 -6 0 -32 -47 -59 -105z"/>
<path d="M2700 5528 c0 -7 -3 -58 -7 -114 -4 -68 -2 -113 7 -138 14 -43 17
-43 25 4 3 19 10 60 15 90 5 30 12 74 15 97 2 23 6 48 7 55 2 8 -9 14 -29 16
-22 2 -33 -1 -33 -10z"/>
<path d="M2769 5308 c0 -7 -3 -34 -5 -60 -3 -25 -1 -49 4 -52 11 -7 36 73 30
99 -4 22 -28 32 -29 13z"/>
<path d="M2824 5229 c-18 -36 -12 -94 11 -103 11 -4 14 8 14 64 0 39 -2 70 -4
70 -3 0 -12 -14 -21 -31z"/>
<path d="M5008 5133 c27 -54 42 -129 39 -190 -2 -29 -2 -53 0 -53 1 0 10 14
18 31 41 78 -2 248 -63 249 -9 0 -7 -10 6 -37z"/>
<path d="M3428 5105 c-2 -1 -73 -5 -158 -9 -85 -3 -168 -8 -185 -10 -16 -2
-66 -7 -110 -11 -99 -9 -103 -10 -110 -16 -2 -3 9 -52 25 -108 28 -98 40 -129
40 -103 0 16 54 42 87 42 15 -1 39 -7 53 -15 l25 -14 -45 -20 c-25 -11 -50
-21 -56 -21 -25 0 -34 -25 -22 -58 13 -34 26 -40 81 -36 40 2 72 24 82 54 4
14 21 19 78 23 39 3 82 8 94 10 12 3 38 -3 57 -13 l36 -18 31 29 c23 22 41 29
69 29 21 0 45 6 52 13 19 19 100 77 107 77 3 0 12 -4 20 -9 12 -8 10 -15 -7
-46 -12 -20 -22 -38 -22 -41 0 -2 19 -4 43 -4 26 0 66 11 103 29 l60 28 32
-28 c35 -31 78 -37 140 -20 18 6 62 13 97 16 74 8 80 1 41 -50 -46 -60 -116
-79 -211 -60 -74 16 -158 12 -209 -10 -63 -27 -51 -29 184 -40 74 -3 172 -8
217 -10 l82 -5 3 37 c3 34 6 38 38 44 19 4 67 10 106 13 80 6 129 -14 140 -58
6 -25 -19 -86 -36 -86 -23 0 -7 -28 25 -43 75 -36 174 -30 240 13 l29 19 -59
26 c-68 29 -120 67 -136 96 -12 23 -1 36 61 67 52 27 65 23 68 -20 2 -21 6
-38 9 -38 3 0 22 14 43 30 21 17 41 30 45 30 3 0 5 -17 3 -37 -2 -29 1 -39 13
-41 25 -5 54 39 85 126 34 97 49 114 39 47 -13 -90 -11 -120 5 -120 31 0 54
151 35 227 l-7 26 -75 -34 c-41 -19 -95 -48 -119 -65 -69 -47 -113 -59 -212
-54 -71 3 -105 10 -182 40 -187 73 -289 104 -421 129 -162 31 -189 34 -349 42
-69 3 -140 7 -157 8 -18 2 -34 2 -35 1z m517 -109 c37 -16 46 -27 18 -22 -10
2 -40 7 -67 11 -35 5 -45 9 -35 16 20 13 45 11 84 -5z m188 -63 c20 -3 37 -9
37 -12 0 -4 -27 -12 -61 -17 -53 -9 -61 -8 -70 7 -17 33 -11 42 24 35 17 -4
49 -9 70 -13z m-710 -12 c9 -10 8 -15 -7 -27 -25 -18 -67 -18 -92 0 -23 17
-16 26 28 35 42 10 55 8 71 -8z m936 -68 c36 -24 39 -29 21 -31 -23 -4 -81 26
-88 46 -6 20 21 14 67 -15z"/>
<path d="M2780 4879 c0 -44 60 -67 79 -30 9 16 5 20 -28 30 -47 14 -51 14 -51
0z"/>
<path d="M3473 4768 c-44 -26 -41 -38 7 -38 38 0 40 2 40 30 0 35 -4 35 -47 8z"/>
<path d="M2728 4737 c-39 -35 -46 -51 -28 -62 12 -7 66 20 72 37 3 7 2 23 -1
36 -6 23 -6 23 -43 -11z"/>
<path d="M3118 4720 c-17 -11 -44 -77 -35 -87 7 -6 94 37 109 54 27 33 -30 58
-74 33z"/>
<path d="M3226 4655 c-4 -12 2 -15 28 -15 47 0 72 10 54 21 -22 14 -75 10 -82
-6z"/>
<path d="M2760 4625 c-36 -19 -75 -40 -87 -47 -13 -6 -23 -17 -23 -24 0 -7
-15 -14 -34 -16 l-34 -3 97 -104 c72 -76 102 -102 112 -95 8 4 50 36 95 71 80
62 82 62 142 61 67 -2 115 16 110 41 -2 9 -12 16 -23 17 -11 1 -44 2 -72 3
l-53 1 0 40 0 39 -56 -39 c-56 -39 -99 -46 -72 -11 7 9 19 20 26 24 6 4 12 16
12 25 -1 56 -55 63 -140 17z"/>
<path d="M3648 4635 c-1 -1 -28 -5 -58 -8 -75 -9 -155 -30 -277 -74 -95 -34
-103 -39 -119 -75 -13 -28 -30 -44 -67 -63 -28 -14 -57 -25 -65 -25 -7 0 -23
-5 -34 -11 -20 -11 -20 -13 18 -35 21 -13 49 -24 61 -24 22 0 28 7 98 105 22
31 48 61 58 67 14 7 60 0 172 -28 146 -36 153 -37 170 -20 24 23 59 36 100 36
47 0 51 14 9 29 -24 9 -66 11 -142 6 -103 -7 -108 -6 -132 16 l-24 24 39 11
c22 6 102 12 178 13 77 0 142 3 145 5 4 2 25 7 46 10 58 9 63 22 15 31 -29 6
-186 15 -191 10z"/>
<path d="M4233 4573 c12 -19 17 -115 9 -146 -11 -38 7 -96 30 -98 7 -1 27 -3
43 -5 51 -6 118 -12 158 -13 34 -1 37 -3 37 -31 0 -24 6 -33 28 -42 15 -7 50
-27 79 -44 40 -26 50 -37 46 -53 -6 -22 -29 -34 -46 -25 -7 4 -35 22 -63 41
-32 22 -61 33 -75 31 -21 -3 -16 -8 36 -43 33 -22 61 -48 63 -57 2 -10 -8 -32
-22 -50 l-24 -33 49 -62 c76 -97 100 -63 44 63 -13 28 -19 57 -15 63 4 7 26
15 49 18 27 4 45 12 48 22 2 9 16 40 30 69 20 43 24 60 17 84 l-9 31 -29 -41
c-16 -23 -32 -39 -37 -36 -5 3 -7 9 -4 14 3 5 -8 36 -24 69 -37 73 -64 84
-184 78 -45 -2 -88 -2 -95 1 -6 2 -19 29 -28 60 -28 97 -58 142 -95 142 -11 0
-18 -3 -16 -7z"/>
<path d="M3872 4468 c19 -39 19 -42 2 -51 -30 -17 -64 -55 -64 -72 0 -21 2
-20 64 20 101 65 147 67 225 10 26 -19 37 -22 52 -14 25 13 24 26 -1 34 -19 6
-19 8 -5 42 8 19 15 37 15 39 0 2 -31 4 -69 4 -56 0 -75 -4 -104 -25 l-36 -24
-12 39 c-11 37 -15 40 -50 40 l-37 0 20 -42z"/>
<path d="M4457 4498 c6 -7 13 -25 17 -40 7 -32 32 -41 116 -42 52 -1 55 1 58
24 3 25 -1 27 -86 48 -104 26 -118 27 -105 10z"/>
<path d="M3210 4361 c0 -28 24 -64 61 -91 23 -16 47 -30 54 -30 6 0 19 16 28
35 20 42 44 49 142 43 97 -6 132 -27 169 -101 26 -51 32 -57 60 -57 21 0 56
17 106 50 l74 50 19 -48 c27 -69 46 -85 91 -77 53 10 44 40 -18 59 -16 6 -18
14 -13 66 8 74 10 74 -136 19 l-109 -41 -36 35 c-38 36 -89 66 -124 72 -19 4
-57 7 -280 20 -54 3 -88 2 -88 -4z"/>
<path d="M3585 4274 c-5 -2 -30 -8 -54 -14 -23 -6 -41 -14 -37 -17 3 -3 -11
-37 -30 -76 l-36 -70 49 28 c66 38 111 82 118 117 7 32 6 37 -10 32z"/>
<path d="M1806 4239 c-31 -25 -60 -75 -50 -90 7 -11 104 83 104 101 0 17 -26
11 -54 -11z"/>
<path d="M4160 4239 c-30 -4 -58 -5 -62 -3 -10 6 0 -17 40 -94 32 -61 34 -63
55 -49 67 43 67 43 82 23 12 -16 12 -22 0 -40 -23 -32 -19 -36 35 -36 44 0 54
4 80 33 56 62 33 87 -80 87 -67 0 -110 11 -110 29 0 4 34 6 75 3 41 -2 75 0
75 5 0 5 -7 19 -16 31 -17 25 -51 27 -174 11z"/>
<path d="M4780 4204 c0 -25 48 -84 68 -84 8 0 32 80 32 105 0 3 -22 5 -50 5
-47 0 -50 -2 -50 -26z"/>
<path d="M3719 4074 c-23 -27 -17 -187 9 -249 24 -58 23 -62 25 119 1 141 -5
164 -34 130z"/>
<path d="M4683 4036 c11 -29 81 -116 94 -116 8 0 11 16 9 52 -4 55 -6 58 -75
73 -29 6 -33 5 -28 -9z"/>
<path d="M4369 3939 c-9 -5 -8 -11 4 -23 19 -19 36 -20 60 -2 14 11 15 16 5
22 -17 11 -54 13 -69 3z"/>
<path d="M4317 3858 c54 -92 63 -98 63 -44 0 25 -7 40 -26 55 -15 12 -33 21
-41 21 -12 0 -11 -6 4 -32z"/>
<path d="M3846 3715 c7 -77 10 -113 13 -127 2 -10 71 -51 77 -45 3 2 -6 22
-21 42 -14 21 -25 46 -25 56 0 36 -22 117 -36 135 -13 17 -14 10 -8 -61z"/>
<path d="M3758 3724 c-7 -7 44 -114 54 -114 13 0 9 20 -14 71 -22 48 -29 55
-40 43z"/>
<path d="M1436 3640 c-10 -39 -16 -73 -14 -75 9 -10 57 43 64 70 7 27 -9 75
-24 75 -4 0 -16 -32 -26 -70z"/>
<path d="M4305 3578 c14 -66 54 -83 120 -52 18 8 43 26 56 40 19 20 20 24 5
24 -9 0 -33 -7 -53 -15 -38 -16 -63 -7 -63 21 0 9 -12 14 -36 14 -35 0 -35 -1
-29 -32z"/>
<path d="M4093 3523 c-39 -13 -43 -18 -43 -49 0 -19 3 -34 6 -34 18 0 102 74
97 86 -6 17 -6 17 -60 -3z"/>
<path d="M1329 3478 c-2 -21 -1 -18 -18 -86 -15 -61 -9 -77 12 -35 22 42 29
86 18 114 -7 18 -10 20 -12 7z"/>
<path d="M4069 3223 c-8 -2 -23 -17 -33 -33 -21 -37 -41 -38 -112 -4 -42 20
-61 24 -77 17 -20 -9 -19 -11 18 -36 22 -14 69 -35 104 -47 36 -12 76 -31 91
-43 l26 -22 -29 -28 c-21 -19 -28 -33 -24 -50 22 -88 21 -93 -21 -139 -73 -80
-77 -104 -27 -149 48 -44 35 -50 -21 -10 -25 18 -47 32 -48 30 -2 -2 -11 -19
-20 -36 -9 -18 -21 -34 -26 -34 -6 -1 -16 -2 -22 -3 -7 -1 -37 8 -67 21 -29
13 -55 23 -57 23 -1 0 0 -35 2 -77 4 -59 2 -83 -9 -97 -13 -18 -15 -16 -26 28
-12 50 -20 55 -43 29 -29 -33 -30 -60 -5 -108 24 -44 26 -79 5 -91 -14 -9 -20
1 -32 57 -11 48 -15 54 -51 66 -21 7 -40 11 -43 9 -2 -3 7 -20 21 -38 14 -18
29 -45 32 -60 l7 -28 -60 0 c-59 0 -61 1 -56 25 2 14 2 25 0 25 -10 0 -65 -84
-60 -92 3 -4 23 -17 44 -28 21 -11 96 -61 167 -111 123 -88 220 -149 236 -149
31 0 -57 102 -113 130 -38 20 -97 76 -88 85 13 13 178 -116 308 -242 35 -34
66 -60 69 -57 2 2 -10 24 -28 49 -20 27 -30 52 -27 62 5 12 10 10 28 -13 13
-16 29 -34 38 -41 16 -13 53 -17 62 -7 3 3 -23 35 -57 72 -35 37 -62 69 -60
71 8 7 77 -43 100 -73 35 -46 63 -113 70 -171 4 -28 9 -52 11 -54 6 -7 83 60
114 98 47 60 88 157 106 251 22 118 21 332 -2 455 -2 11 -9 47 -15 80 -28 159
-139 431 -189 467 -25 18 -79 28 -111 21z m197 -327 c17 -13 17 -15 2 -21 -27
-11 -63 -1 -66 18 -4 22 35 24 64 3z m-56 -229 c25 -78 51 -100 69 -61 6 14 8
37 5 52 -7 27 -7 27 14 8 18 -15 52 -93 52 -117 0 -4 -11 -11 -25 -16 l-25 -8
27 -38 c46 -65 38 -158 -27 -331 -21 -56 -24 -58 -37 -40 -11 14 -13 32 -7 69
14 94 9 167 -15 235 -40 113 -89 324 -77 332 14 9 19 -1 46 -85z m-366 -119
c13 -13 28 -38 31 -56 6 -31 5 -33 -16 -30 -26 4 -56 42 -63 81 -6 34 13 36
48 5z m-68 -238 c8 0 14 -6 14 -14 0 -16 -17 -15 -62 3 -38 14 -35 25 3 17 17
-3 38 -6 45 -6z m85 -90 c19 -11 74 -88 67 -95 -4 -4 -84 48 -109 71 -9 8 -19
24 -22 34 -4 16 -1 17 20 9 13 -5 33 -14 44 -19z"/>
<path d="M2646 2644 c-55 -44 -64 -54 -45 -54 47 0 100 41 121 92 11 27 -1 21
-76 -38z"/>
<path d="M4548 2608 c12 -47 17 -57 23 -42 19 48 5 104 -27 104 -9 0 -8 -16 4
-62z"/>
<path d="M2826 2593 c-10 -14 -35 -31 -55 -39 -77 -31 -131 -58 -131 -66 0 -9
-5 -8 115 -15 139 -7 188 -8 210 -3 17 4 19 1 16 -20 -3 -25 -3 -25 18 -6 12
11 21 28 21 39 0 30 -22 97 -32 97 -5 0 -26 -12 -47 -26 -22 -14 -50 -24 -63
-22 -19 2 -24 10 -28 45 l-5 41 -19 -25z"/>
<path d="M2436 2567 c-43 -25 -46 -37 -8 -37 53 0 122 30 122 54 0 13 -81 1
-114 -17z"/>
<path d="M3343 2449 c-23 -41 -39 -78 -36 -82 7 -12 83 63 89 88 3 11 1 31 -4
44 -8 22 -12 18 -49 -50z"/>
<path d="M2400 2422 c0 -4 14 -45 30 -91 17 -46 30 -85 30 -87 0 -2 -11 -4
-25 -4 -14 0 -25 -3 -25 -7 0 -5 30 -41 66 -81 l66 -72 63 5 62 6 13 -56 c7
-30 15 -55 18 -55 2 0 40 16 84 36 93 42 94 41 134 -51 26 -60 29 -63 52 -54
85 32 136 -1 147 -95 l7 -56 28 23 c75 60 65 81 -88 185 -97 65 -151 120 -178
179 -20 44 -32 57 -76 80 -78 41 -95 44 -120 23 -22 -18 -22 -20 -8 -47 9 -15
31 -37 51 -48 88 -51 101 -73 35 -61 -23 4 -49 22 -77 50 -23 25 -50 47 -60
49 -19 5 -44 -12 -51 -35 -3 -8 -19 -1 -47 21 -53 42 -51 44 93 102 60 24 111
50 113 56 8 20 -22 42 -82 62 l-56 18 7 -21 c3 -11 8 -29 10 -38 9 -32 -22
-18 -113 48 -23 16 -103 29 -103 16z"/>
<path d="M4850 2400 c6 -11 8 -20 5 -20 -3 0 1 -13 10 -30 15 -29 35 -40 35
-20 0 25 -34 90 -46 90 -12 0 -12 -4 -4 -20z"/>
<path d="M4762 2368 c2 -36 7 -44 26 -46 26 -4 27 6 8 53 -21 49 -38 45 -34
-7z"/>
<path d="M2952 2272 c-20 -3 -23 -8 -17 -30 4 -15 12 -34 19 -42 40 -48 181
-216 186 -220 3 -3 36 -41 75 -85 38 -44 76 -86 84 -94 11 -12 9 -17 -13 -34
-30 -22 -34 -57 -8 -80 23 -21 162 -69 162 -56 0 46 -97 214 -166 287 -37 39
-44 58 -18 48 9 -3 21 -6 28 -6 7 0 37 -18 66 -40 29 -22 64 -40 77 -40 20 0
22 4 17 33 -33 181 -77 258 -156 272 l-37 7 9 -31 c13 -45 -4 -40 -83 25 -38
30 -80 60 -95 66 -35 14 -101 24 -130 20z m324 -211 c-1 -37 -12 -41 -78 -32
-5 1 -4 54 1 57 0 0 18 1 39 1 35 1 38 -2 38 -26z"/>
<path d="M5060 2191 c0 -11 17 -34 40 -52 22 -18 38 -34 37 -36 -2 -2 -25 8
-51 23 -31 17 -55 24 -71 20 l-24 -6 28 -61 c44 -98 105 -120 147 -52 10 15
29 40 42 55 24 26 24 28 8 52 -18 28 -73 60 -123 71 -29 6 -33 4 -33 -14z"/>
<path d="M4920 1963 c0 -31 -30 -50 -89 -57 -66 -8 -74 -12 -65 -39 14 -43 43
-59 144 -80 41 -9 83 -19 92 -22 13 -5 22 2 35 29 17 37 55 56 116 56 31 0 35
16 12 59 -20 41 -77 64 -167 69 -72 4 -78 3 -78 -15z"/>
<path d="M3514 1958 c-13 -21 7 -56 38 -67 40 -14 45 -8 26 33 -16 33 -53 53
-64 34z"/>
<path d="M3898 1923 c11 -16 32 -39 46 -52 l26 -24 0 22 c0 26 -51 81 -75 81
-14 0 -14 -3 3 -27z"/>
<path d="M4565 1920 c-49 -25 -184 -133 -181 -145 5 -16 34 -7 133 42 81 40
97 44 134 38 l42 -7 -23 40 c-27 48 -56 57 -105 32z"/>
<path d="M2130 1820 c-75 -33 -93 -56 -35 -47 38 6 115 52 115 68 0 12 -7 11
-80 -21z"/>
<path d="M2260 1824 c-6 -14 -10 -27 -10 -29 0 -3 23 -16 51 -30 37 -19 49
-30 45 -43 -3 -9 -14 -51 -26 -92 l-22 -75 33 -27 c18 -16 37 -28 42 -28 17 0
82 -58 100 -90 l19 -31 -81 50 c-44 27 -82 47 -85 43 -12 -21 -14 -69 -3 -83
6 -8 37 -25 68 -38 56 -22 119 -74 106 -87 -4 -4 -48 1 -98 11 -80 15 -93 15
-106 3 -16 -16 -9 -22 98 -77 l46 -24 59 36 c37 22 60 43 60 54 1 10 4 34 7
53 3 19 9 58 12 85 l7 50 -49 23 c-89 43 -141 81 -146 108 -3 16 0 23 7 20 6
-2 52 -21 101 -41 50 -20 104 -43 120 -50 83 -38 109 -45 119 -35 7 7 -1 22
-26 48 -261 274 -242 256 -286 255 -30 -1 -55 7 -96 32 l-57 34 -9 -25z"/>
<path d="M3446 1822 c-6 -9 102 -204 133 -240 23 -26 80 -52 115 -52 36 0 96
31 96 49 -1 36 -35 63 -86 68 -84 7 -90 11 -164 98 -71 83 -83 94 -94 77z"/>
<path d="M3636 1780 c-16 -5 -10 -12 36 -38 93 -53 162 -144 182 -238 8 -36
31 -44 118 -44 62 0 72 19 32 62 -32 33 -93 67 -110 61 -6 -2 -19 17 -29 43
-20 53 -74 118 -116 139 -33 18 -87 25 -113 15z"/>
<path d="M4673 1780 c-29 -4 -50 -16 -71 -37 l-29 -32 -89 5 c-49 3 -97 7
-107 9 -13 2 -17 -3 -15 -24 3 -44 -8 -51 -78 -51 l-66 0 7 -29 c5 -24 2 -33
-14 -43 -29 -18 -26 -25 14 -32 63 -12 117 -50 225 -158 59 -59 110 -105 114
-101 14 14 4 51 -29 103 -58 90 -53 93 68 46 63 -24 67 -25 67 -7 0 10 6 23
13 29 11 9 104 15 233 14 44 0 134 -34 134 -50 0 -6 6 -12 13 -15 10 -4 13 7
12 46 -2 57 8 77 36 77 16 0 19 7 19 43 0 23 -7 50 -15 60 -14 19 -204 116
-265 135 -44 14 -123 19 -177 12z m182 -100 c14 -5 24 -14 21 -19 -5 -7 -30
-8 -90 -2 -10 1 24 30 36 31 4 0 19 -4 33 -10z m-254 -53 c24 -8 63 -25 86
-40 23 -14 53 -29 68 -33 35 -9 14 -22 -28 -18 -40 5 -187 81 -187 97 0 10 10
9 61 -6z"/>
<path d="M3840 1759 c0 -27 33 -68 83 -102 31 -21 58 -45 61 -53 10 -26 26
-14 26 20 0 36 -31 89 -70 118 -29 21 -100 34 -100 17z"/>
<path d="M3056 1502 c-7 -12 17 -37 96 -96 85 -63 104 -88 116 -143 6 -24 14
-37 22 -35 63 15 70 15 64 -2 -10 -26 13 -18 35 13 19 26 46 119 38 127 -2 3
-20 -2 -39 -10 -32 -14 -39 -13 -69 2 -19 10 -64 43 -101 74 -36 31 -74 59
-84 62 -37 11 -74 14 -78 8z"/>
<path d="M4064 1479 c7 -17 24 -43 38 -58 54 -58 93 -131 69 -131 -6 0 -28 15
-48 34 -46 41 -75 56 -104 56 -19 0 -12 -11 45 -67 37 -38 66 -72 64 -78 -2
-5 -27 -11 -56 -12 -29 -1 -61 -7 -72 -13 -19 -10 -19 -13 -5 -40 31 -59 54
-65 179 -48 13 2 22 -6 28 -25 6 -16 7 -31 4 -35 -4 -3 -68 -6 -144 -7 l-137
-1 3 -24 c4 -36 27 -56 132 -118 89 -53 100 -57 163 -58 74 -2 88 8 70 49 -12
26 -3 59 13 49 17 -11 54 -75 54 -94 0 -9 -8 -24 -17 -33 -22 -22 -69 -16
-273 34 -148 36 -192 41 -157 17 8 -6 24 -18 36 -26 22 -15 56 -78 47 -87 -3
-3 -41 7 -85 22 -98 35 -110 51 -87 122 20 60 35 174 26 199 -7 18 -7 18 -13
-1 -7 -21 -14 -57 -23 -115 -10 -66 -14 -85 -24 -139 -15 -78 -14 -79 32 -92
111 -29 151 -67 152 -143 1 -51 2 -53 21 -44 11 6 30 23 43 39 13 16 31 29 41
29 10 0 51 -31 92 -70 82 -78 85 -71 -32 -75 -74 -3 -129 -14 -129 -25 0 -6
17 -10 38 -10 21 0 62 -13 96 -30 68 -35 66 -34 66 -17 0 8 19 40 41 71 40 55
50 94 38 136 -4 15 5 16 124 19 23 1 31 9 52 57 29 66 29 65 12 88 -12 16 -17
15 -82 -16 -54 -25 -87 -33 -144 -36 -52 -3 -72 -1 -67 7 4 6 13 11 19 11 7 0
45 13 86 29 73 28 75 30 107 93 18 34 33 68 34 73 0 6 -20 42 -46 80 -47 72
-45 84 7 66 28 -10 30 -9 23 12 -3 12 -17 43 -30 69 -30 60 -30 68 1 68 14 0
25 5 25 10 0 6 -21 47 -46 91 -43 75 -49 80 -73 74 -46 -11 -61 -7 -87 25 -31
36 -93 70 -128 70 -24 0 -25 -1 -12 -31z"/>
<path d="M5193 1484 c-10 -4 175 -104 193 -104 14 0 -32 52 -66 74 -38 25
-103 41 -127 30z"/>
<path d="M5370 1466 c0 -2 42 -35 94 -74 79 -60 94 -76 100 -106 8 -43 64
-104 77 -84 13 20 10 76 -5 106 -15 29 -56 69 -96 94 -26 16 -170 70 -170 64z"/>
<path d="M3441 1253 c-7 -27 -19 -72 -27 -101 l-15 -53 -62 2 c-34 0 -77 1
-95 0 l-32 -1 20 -40 c18 -35 19 -41 5 -46 -22 -9 -83 4 -127 27 -47 24 -51
24 -63 -3 -9 -20 -16 -23 -65 -20 -46 2 -52 0 -40 -10 9 -7 56 -45 106 -85 74
-59 95 -82 113 -123 l22 -50 23 27 24 27 28 -34 c16 -19 38 -42 48 -52 34 -31
118 -68 156 -68 33 0 80 22 80 38 0 4 -61 32 -135 62 -74 30 -135 58 -135 62
0 6 36 4 125 -10 44 -7 140 0 151 10 2 2 -5 39 -15 82 l-19 77 27 10 c108 39
170 112 177 208 4 54 1 51 -24 -19 -18 -54 -20 -55 -55 -54 -20 1 -44 7 -53
15 -14 12 -14 14 1 25 9 7 23 10 31 7 23 -9 17 31 -8 54 -19 18 -139 83 -152
83 -2 0 -9 -21 -15 -47z m84 -169 c33 -21 31 -30 -5 -43 -30 -10 -30 -9 -30
25 0 39 2 40 35 18z"/>
<path d="M3072 1261 c9 -25 84 -161 88 -161 3 0 11 13 17 30 11 28 8 33 -41
85 -49 51 -72 68 -64 46z"/>
<path d="M4720 1217 c0 -5 23 -32 109 -127 38 -41 80 -88 94 -105 l27 -30 -14
41 c-32 93 -73 152 -139 197 -34 23 -77 36 -77 24z"/>
<path d="M4620 1158 c0 -7 38 -61 85 -120 91 -115 91 -110 19 -146 l-42 -21
-22 59 c-22 60 -89 149 -90 120 0 -9 23 -60 50 -114 62 -122 67 -171 20 -187
-27 -10 -43 -39 -21 -39 28 0 251 52 281 66 32 14 77 60 68 69 -2 2 -27 5 -56
6 -46 2 -71 12 -70 29 0 3 -3 30 -7 61 -7 55 -9 58 -65 98 -33 22 -76 61 -97
86 -38 46 -53 55 -53 33z"/>
<path d="M4468 935 c-8 -8 69 -236 84 -250 14 -13 3 83 -18 151 -16 53 -54
110 -66 99z"/>
<path d="M2950 717 c0 -13 76 -50 132 -64 35 -9 75 -22 91 -30 15 -7 27 -9 27
-4 0 17 -53 73 -79 83 -28 10 -171 23 -171 15z"/>
<path d="M4878 669 c-44 -24 -58 -38 -63 -61 -4 -16 -5 -32 -2 -34 13 -13 168
-5 216 11 50 16 141 88 129 101 -3 3 -26 0 -49 -7 -66 -18 -81 -17 -117 3 -43
23 -47 23 -114 -13z"/>
<path d="M3017 614 c-6 -6 95 -94 107 -94 3 0 6 13 6 29 0 24 -6 31 -47 47
-27 11 -50 20 -54 22 -3 1 -8 0 -12 -4z"/>
<path d="M4395 573 c-45 -14 -48 -16 -30 -29 27 -20 41 -18 77 16 37 33 28 36
-47 13z"/>
<path d="M4341 449 c-13 -5 -22 -11 -20 -13 7 -6 149 -17 149 -12 0 8 -70 36
-89 35 -9 0 -27 -5 -40 -10z"/>
<path d="M4426 358 c-9 -12 -16 -26 -16 -31 0 -13 84 -1 109 15 31 19 20 32
-31 36 -39 3 -48 0 -62 -20z"/>
<path d="M4070 300 c61 -22 121 -25 151 -10 41 22 17 30 -93 29 l-113 0 55
-19z"/>
<path d="M4465 291 c-70 -25 -86 -34 -77 -43 14 -14 74 7 97 32 19 21 14 23
-20 11z"/>
<path d="M5203 254 c-45 -22 -70 -51 -55 -66 8 -8 25 -6 65 9 l54 21 17 -29
c25 -42 47 -51 98 -40 46 11 88 49 88 82 0 23 -1 23 -47 4 -53 -22 -88 -19
-107 10 -20 30 -64 33 -113 9z"/>
</g>
</svg>
